# xmcd
# Track frame offsets:
# 150
# 14575
# 24903
# 35993
# 47118
# 59035
# 71478
# 83423
# 94300
# 108370
# 118250
# 131493
# 143760
# 155205
# 167873
# 177983
# 189548
# 200895
# 210058
# 220530
#
# Disc length: 3064 seconds
# Revision: 0
# Processed by: cddbd v1.4PL0 Copyright (c) Steve Scherf et al.
# Submitted via: VisiTrax 2.9.5.180 - For more info visit www.synapsa.com
#
DISCID=280bf614
DTITLE=George Jones - A good year for the roses
DYEAR=1994
DGENRE=
TTITLE0=A good year for the roses
TTITLE1=Developing my oicture
TTITLE2=Tender years
TTITLE3=Say it's not you
TTITLE4=From here to the door
TTITLE5=If my heart had windows
TTITLE6=My favorite lies
TTITLE7=Accidentally on purpose
TTITLE8=Where thegrass won't grow
TTITLE9=Sweet dreams
TTITLE10=Things have gone to pieces
TTITLE11=White lightning
TTITLE12=Four-O-thirty-three
TTITLE13=Take me
TTITLE14=I'm a people
TTITLE15=I'm wasting good paper
TTITLE16=Old Brush Arbors
TTITLE17=Love bug
TTITLE18=Walk through this world with me
TTITLE19=The race is on
EXTD=
EXTT0=
EXTT1=
EXTT2=
EXTT3=
EXTT4=
EXTT5=
EXTT6=
EXTT7=
EXTT8=
EXTT9=
EXTT10=
EXTT11=
EXTT12=
EXTT13=
EXTT14=
EXTT15=
EXTT16=
EXTT17=
EXTT18=
EXTT19=
PLAYORDER=
